<svg width="60" height="76" viewBox="0 0 60 76" fill="none" xmlns="http://www.w3.org/2000/svg">
<path fill-rule="evenodd" clip-rule="evenodd" d="M1.82723 43.3302C-3.55703 50.5846 3.33861 73.557 17.5077 75.2311C17.5077 75.2311 9.86458 66.9598 11.0519 61.6048C12.1041 56.8591 25.1266 55.0944 20.3091 49.049C15.4916 43.0036 28.7728 47.7469 31.0776 53.4202C33.3824 59.0936 28.6216 61.5117 30.133 64.6739C31.6444 67.8361 33.1557 68.8592 37.25 66.255C40.3485 64.2842 35.3283 74.5325 35.3283 74.5325C45.6246 72.5119 51.2458 67.6663 57.5591 60.2572C66.9107 49.2825 46.1293 12.1733 49.6244 30.2164C53.1194 48.2595 32.9993 47.5154 37.25 44.6323C41.5008 41.7491 43.6734 38.9589 40.8395 25.1941C38.0057 11.4292 12.3124 -4.56776 16.5631 2.03564C20.8139 8.63905 18.4199 24.0304 15.4916 28.3087C12.5633 32.587 11.0508 33.7384 8.9263 35.6847C6.87107 37.5676 4.47477 39.763 1.82723 43.3302Z" fill="#F07606"/>
</svg>
